<?xml version="1.0" encoding="utf-8"?>
<!-- Generator: Adobe Illustrator 21.1.0, SVG Export Plug-In . SVG Version: 6.00 Build 0)  -->
<svg version="1.1" id="_x2014_ÎÓÈ_x5F_1" xmlns="http://www.w3.org/2000/svg" xmlns:xlink="http://www.w3.org/1999/xlink"
	 x="0px" y="0px" viewBox="0 0 447.9 310.3" style="enable-background:new 0 0 447.9 310.3;" xml:space="preserve">
<style type="text/css">
	.st0{fill:#f2f2f2;}
</style>
<g>
	<g>
		<path class="st0" d="M92.2,242.3h263.6c1.2,0,2.2-1,2.2-2.2c0-1.2-1-2.2-2.2-2.2H92.2c-1.2,0-2.2,1-2.2,2.2
			C89.9,241.3,90.9,242.3,92.2,242.3z"/>
		<path class="st0" d="M355.8,305.8H92.2c-1.2,0-2.2,1-2.2,2.2c0,1.2,1,2.2,2.2,2.2h263.6c1.2,0,2.2-1,2.2-2.2
			C358,306.8,357,305.8,355.8,305.8z"/>
	</g>
	<g>
		<path class="st0" d="M114.2,0c-2.8,0-5,2.2-5,5v166.2c0,2.8,2.2,5,5,5c2.8,0,5-2.2,5-5V5C119.2,2.2,117,0,114.2,0z"/>
		<path class="st0" d="M84.9,16.2c-2.8,0-5,2.2-5,5V155c0,2.8,2.2,5,5,5c2.8,0,5-2.2,5-5V21.2C89.9,18.4,87.7,16.2,84.9,16.2z"/>
		<path class="st0" d="M58.3,35.6c-2.8,0-5,2.2-5,5v95c0,2.8,2.2,5,5,5s5-2.2,5-5v-95C63.3,37.9,61,35.6,58.3,35.6z"/>
		<path class="st0" d="M31.6,54.1c-2.8,0-5,2.2-5,5v58c0,2.8,2.2,5,5,5c2.8,0,5-2.2,5-5v-58C36.6,56.3,34.4,54.1,31.6,54.1z"/>
		<path class="st0" d="M5,62.9c-2.8,0-5,2.2-5,5v40.5c0,2.8,2.2,5,5,5s5-2.2,5-5V67.9C10,65.1,7.8,62.9,5,62.9z"/>
		<path class="st0" d="M144,16.2c-2.8,0-5,2.2-5,5V155c0,2.8,2.2,5,5,5c2.8,0,5-2.2,5-5V21.2C149,18.4,146.8,16.2,144,16.2z"/>
		<path class="st0" d="M170.7,35.6c-2.8,0-5,2.2-5,5v95c0,2.8,2.2,5,5,5c2.8,0,5-2.2,5-5v-95C175.7,37.9,173.4,35.6,170.7,35.6z"/>
		<path class="st0" d="M197.3,54.1c-2.8,0-5,2.2-5,5v58c0,2.8,2.2,5,5,5c2.8,0,5-2.2,5-5v-58C202.3,56.3,200.1,54.1,197.3,54.1z"/>
		<path class="st0" d="M224,7.5c-2.8,0-5,2.2-5,5V164c0,2.8,2.2,5,5,5c2.8,0,5-2.2,5-5V12.5C229,9.8,226.7,7.5,224,7.5z"/>
		<path class="st0" d="M333.2,0c-2.8,0-5,2.2-5,5v166.2c0,2.8,2.2,5,5,5c2.8,0,5-2.2,5-5V5C338.2,2.2,336,0,333.2,0z"/>
		<path class="st0" d="M303.9,16.2c-2.8,0-5,2.2-5,5V155c0,2.8,2.2,5,5,5c2.8,0,5-2.2,5-5V21.2C308.9,18.4,306.7,16.2,303.9,16.2z"
			/>
		<path class="st0" d="M277.3,35.6c-2.8,0-5,2.2-5,5v95c0,2.8,2.2,5,5,5c2.8,0,5-2.2,5-5v-95C282.3,37.9,280,35.6,277.3,35.6z"/>
		<path class="st0" d="M250.6,54.1c-2.8,0-5,2.2-5,5v58c0,2.8,2.2,5,5,5c2.8,0,5-2.2,5-5v-58C255.6,56.3,253.4,54.1,250.6,54.1z"/>
		<path class="st0" d="M363,16.2c-2.8,0-5,2.2-5,5V155c0,2.8,2.2,5,5,5s5-2.2,5-5V21.2C368,18.4,365.8,16.2,363,16.2z"/>
		<path class="st0" d="M389.7,35.6c-2.8,0-5,2.2-5,5v95c0,2.8,2.2,5,5,5s5-2.2,5-5v-95C394.7,37.9,392.4,35.6,389.7,35.6z"/>
		<path class="st0" d="M416.3,54.1c-2.8,0-5,2.2-5,5v58c0,2.8,2.2,5,5,5c2.8,0,5-2.2,5-5v-58C421.3,56.3,419.1,54.1,416.3,54.1z"/>
		<path class="st0" d="M442.9,62.9c-2.8,0-5,2.2-5,5v40.5c0,2.8,2.2,5,5,5c2.8,0,5-2.2,5-5V67.9C447.9,65.1,445.7,62.9,442.9,62.9z"
			/>
	</g>
	<g>
		<path class="st0" d="M107.8,259.4c0.9-0.2,1.9-0.4,3-0.4c1.1-0.1,2.1-0.1,3.1-0.1c1.1,0,2.2,0.1,3.4,0.3c1.1,0.2,2.2,0.6,3.1,1.2
			c0.9,0.6,1.7,1.4,2.3,2.4c0.6,1,0.9,2.3,0.9,3.9c0,1.5-0.3,2.8-0.8,3.9c-0.6,1.1-1.3,1.9-2.2,2.6c-0.9,0.7-2,1.1-3.1,1.4
			c-1.2,0.3-2.4,0.4-3.6,0.4c-0.1,0-0.3,0-0.6,0s-0.6,0-0.9,0c-0.3,0-0.6,0-0.9-0.1c-0.3,0-0.5,0-0.6-0.1v9.6h-3V259.4z M114,261.4
			c-0.6,0-1.2,0-1.8,0c-0.6,0-1,0.1-1.4,0.2v10.4c0.1,0,0.3,0.1,0.6,0.1c0.3,0,0.5,0,0.8,0s0.6,0,0.8,0c0.3,0,0.5,0,0.6,0
			c0.8,0,1.6-0.1,2.4-0.2c0.8-0.2,1.5-0.4,2.2-0.8c0.6-0.4,1.2-1,1.6-1.7c0.4-0.7,0.6-1.7,0.6-2.8c0-1-0.2-1.8-0.6-2.5
			s-0.9-1.2-1.5-1.6s-1.3-0.7-2.1-0.8C115.5,261.5,114.7,261.4,114,261.4z"/>
		<path class="st0" d="M129.6,284.3v-2.4h6.3v-13.2h-6.3v-2.4h9.1v15.6h6.1v2.4H129.6z M134.8,261.2c0-0.6,0.2-1.2,0.6-1.7
			c0.4-0.5,1-0.7,1.7-0.7c0.7,0,1.3,0.2,1.7,0.7c0.5,0.5,0.7,1,0.7,1.7c0,0.6-0.2,1.2-0.7,1.6c-0.5,0.4-1.1,0.6-1.7,0.6
			c-0.7,0-1.2-0.2-1.7-0.6C135,262.4,134.8,261.8,134.8,261.2z"/>
		<path class="st0" d="M150.7,272.6c0-0.2,0-0.5,0-0.8c0-0.3,0-0.7-0.1-1.1c0-0.4-0.1-0.7-0.1-1.1c0-0.4-0.1-0.7-0.1-0.9H148v-2.3
			h4.8l0.3,2.9h0.2c0.2-0.4,0.6-0.8,1-1.2c0.4-0.4,0.9-0.8,1.4-1.1c0.5-0.3,1.1-0.6,1.8-0.8c0.6-0.2,1.3-0.3,2.1-0.3
			c1.1,0,2.1,0.1,2.9,0.4c0.9,0.2,1.6,0.7,2.1,1.3c0.6,0.6,1,1.4,1.3,2.5c0.3,1,0.4,2.4,0.4,4v10.3h-2.8v-9.8c0-2-0.3-3.5-1-4.5
			c-0.6-1-1.8-1.5-3.5-1.5c-0.6,0-1.2,0.1-1.8,0.4c-0.6,0.3-1.1,0.6-1.6,1c-0.5,0.4-0.9,0.9-1.3,1.4c-0.4,0.5-0.6,1.1-0.8,1.7v11.3
			h-2.8V272.6z"/>
		<path class="st0" d="M187.8,285.2c0,1.1-0.2,2.1-0.6,3c-0.4,0.9-1,1.6-1.8,2.1c-0.8,0.6-1.6,1-2.6,1.2c-1,0.3-2.1,0.4-3.3,0.4
			c-1.4,0-2.7-0.1-3.7-0.4c-1.1-0.3-2-0.7-2.7-1.1l1.4-2.6c0.2,0.2,0.5,0.4,0.8,0.6c0.3,0.2,0.7,0.3,1.2,0.5
			c0.5,0.2,0.9,0.3,1.5,0.4c0.5,0.1,1,0.1,1.5,0.1c1.1,0,1.9-0.1,2.6-0.3c0.7-0.2,1.3-0.5,1.7-0.9c0.4-0.4,0.7-0.9,0.9-1.6
			c0.2-0.6,0.3-1.4,0.3-2.4v-2h-0.1c-0.6,0.8-1.3,1.4-2.1,1.8c-0.9,0.4-2,0.6-3.3,0.6c-2.7,0-4.7-0.8-6-2.3
			c-1.3-1.5-1.9-3.9-1.9-7.1c0-3.1,0.8-5.4,2.4-7c1.6-1.6,4.1-2.4,7.3-2.4c1.5,0,2.8,0.1,3.8,0.3c1,0.2,2,0.5,2.9,0.8V285.2z
			 M179.8,282.3c1.5,0,2.6-0.4,3.4-1.1c0.8-0.8,1.4-1.9,1.8-3.5v-8.5c-1-0.5-2.5-0.8-4.4-0.8c-1.9,0-3.4,0.6-4.5,1.7
			c-1.1,1.1-1.6,2.9-1.6,5.2c0,1,0.1,2,0.3,2.8c0.2,0.9,0.5,1.6,0.9,2.2c0.4,0.6,1,1.1,1.6,1.5C178,282.2,178.8,282.3,179.8,282.3z"
			/>
		<path class="st0" d="M228.6,267.6l0.4-3.4h-0.2l-1.7,3.1l-3.7,6.2h-0.9l-3.9-6.2l-1.7-3.1h-0.2l0.4,3.4v16.8h-2.9v-25.2h2.8l6,9.6
			h0.1l5.8-9.6h2.7v25.2h-3V267.6z"/>
		<path class="st0" d="M237.7,267.7c1-0.6,2.2-1,3.5-1.3c1.3-0.3,2.6-0.4,3.8-0.4c1.2,0,2.2,0.2,3,0.6c0.8,0.4,1.4,0.9,1.8,1.5
			c0.4,0.6,0.7,1.3,0.9,2.1c0.2,0.8,0.2,1.6,0.2,2.4c0,0.9,0,1.9-0.1,2.9c0,1-0.1,2.1-0.1,3.1c0,1.2,0.1,2.3,0.2,3.4h2.4v2.3h-4.8
			l-0.3-2.7h-0.2c-0.1,0.2-0.4,0.5-0.6,0.8c-0.3,0.3-0.7,0.7-1.1,1c-0.5,0.3-1,0.6-1.7,0.8c-0.7,0.2-1.5,0.4-2.4,0.4
			c-1.8,0-3.2-0.5-4.2-1.4c-1-0.9-1.6-2.2-1.6-3.7c0-1.2,0.3-2.2,0.8-3.1c0.5-0.8,1.3-1.4,2.3-1.9c1-0.4,2.2-0.7,3.7-0.8
			c1.4-0.1,3,0,4.8,0.3c0.1-1.1,0.1-2,0.1-2.8c-0.1-0.7-0.3-1.3-0.6-1.7c-0.3-0.4-0.7-0.7-1.3-0.9c-0.5-0.2-1.2-0.3-2-0.3
			c-1.1,0-2.1,0.2-3.1,0.5c-1,0.3-1.9,0.6-2.6,0.9L237.7,267.7z M243,282.2c0.7,0,1.3-0.1,1.9-0.3c0.6-0.2,1.1-0.5,1.5-0.8
			c0.4-0.3,0.8-0.7,1.1-1.1c0.3-0.4,0.5-0.8,0.6-1.1v-2.5c-1.2-0.2-2.4-0.3-3.5-0.3c-1.1,0-2,0.1-2.7,0.3c-0.8,0.2-1.4,0.6-1.8,1.1
			c-0.4,0.5-0.6,1.1-0.6,1.9c0,0.8,0.3,1.5,0.8,2.1C240.8,281.9,241.7,282.2,243,282.2z"/>
		<path class="st0" d="M271.1,279.4c0-0.8-0.3-1.4-0.9-1.8c-0.6-0.4-1.3-0.8-2.2-1c-0.9-0.3-1.8-0.5-2.9-0.7c-1-0.2-2-0.5-2.9-0.9
			c-0.9-0.4-1.6-0.8-2.2-1.5c-0.6-0.6-0.9-1.5-0.9-2.6c0-0.9,0.2-1.7,0.6-2.3c0.4-0.6,0.9-1.2,1.6-1.6s1.4-0.7,2.3-0.9
			c0.9-0.2,1.8-0.3,2.7-0.3c1.7,0,3.1,0.2,4.3,0.6c1.2,0.4,2.2,0.9,2.9,1.3l-1.1,2.3c-0.8-0.4-1.6-0.8-2.6-1.2
			c-0.9-0.4-2.1-0.6-3.5-0.6c-0.5,0-1,0.1-1.6,0.2c-0.5,0.1-1,0.3-1.4,0.5c-0.4,0.2-0.8,0.5-1,0.8c-0.3,0.3-0.4,0.8-0.4,1.3
			c0,0.6,0.3,1.1,0.9,1.4c0.6,0.3,1.3,0.6,2.2,0.8c0.9,0.2,1.8,0.4,2.9,0.6c1,0.2,2,0.5,2.9,0.9c0.9,0.4,1.6,0.9,2.2,1.5
			c0.6,0.6,0.9,1.5,0.9,2.6c0,1.7-0.7,3-2,4.1s-3.3,1.6-5.9,1.6c-0.8,0-1.6-0.1-2.3-0.2c-0.8-0.1-1.5-0.3-2.2-0.6
			c-0.7-0.2-1.3-0.5-1.8-0.8c-0.6-0.3-1-0.6-1.4-0.9l1.4-2.3c0.3,0.3,0.7,0.6,1.1,0.9c0.5,0.3,1,0.6,1.6,0.8
			c0.6,0.2,1.2,0.4,1.8,0.6s1.3,0.2,2,0.2c0.6,0,1.2-0.1,1.8-0.2s1.1-0.3,1.5-0.5c0.4-0.2,0.8-0.5,1-0.9
			C271,280.4,271.1,280,271.1,279.4z"/>
		<path class="st0" d="M278.1,266.3h4.3v-3.6l2.8-0.8v4.4h9.6v2.4h-9.6v8.5c0,1.8,0.4,3,1.3,3.9c0.8,0.8,2.1,1.3,3.6,1.3
			c1.1,0,2-0.2,2.8-0.6c0.8-0.4,1.5-0.9,2.2-1.3l0.9,2.1c-0.8,0.7-1.8,1.2-3,1.6c-1.2,0.4-2.4,0.6-3.6,0.6c-1,0-1.9-0.1-2.7-0.4
			c-0.9-0.3-1.6-0.7-2.2-1.3c-0.6-0.6-1.2-1.3-1.5-2.2c-0.4-0.9-0.6-2-0.6-3.2v-8.9h-4.3V266.3z"/>
		<path class="st0" d="M317.6,282c-0.4,0.4-0.9,0.7-1.5,1.1c-0.6,0.3-1.2,0.6-1.9,0.9c-0.7,0.2-1.4,0.4-2.2,0.6
			c-0.8,0.1-1.5,0.2-2.3,0.2c-1.4,0-2.7-0.2-3.8-0.7c-1.1-0.4-2-1.1-2.8-1.9c-0.7-0.8-1.3-1.8-1.7-3c-0.4-1.2-0.6-2.4-0.6-3.9
			c0-1.5,0.2-2.9,0.6-4c0.4-1.2,1-2.2,1.8-3s1.8-1.4,2.9-1.8c1.1-0.4,2.4-0.6,3.8-0.6c1,0,2,0.1,3,0.4c1,0.3,1.9,0.8,2.6,1.5
			c0.8,0.7,1.3,1.7,1.7,3c0.4,1.3,0.6,2.9,0.4,5h-13.9c0,2.2,0.6,3.8,1.7,4.8c1.2,1.1,2.7,1.6,4.6,1.6c0.6,0,1.3-0.1,1.9-0.2
			c0.6-0.2,1.2-0.3,1.8-0.6c0.6-0.2,1.1-0.5,1.5-0.7c0.4-0.3,0.8-0.5,1-0.7L317.6,282z M310,268.3c-0.8,0-1.5,0.1-2.2,0.3
			c-0.7,0.2-1.3,0.5-1.9,0.8c-0.5,0.4-1,0.9-1.3,1.5c-0.3,0.6-0.6,1.4-0.7,2.4h11.2c-0.1-1.6-0.6-2.8-1.5-3.7
			C312.6,268.7,311.5,268.3,310,268.3z"/>
		<path class="st0" d="M322.5,284.3v-2.4h4.9v-13.2h-4.9v-2.4h6.7l0.6,2.3h0.2c0.8-0.7,1.7-1.4,2.7-1.9c1-0.5,2.2-0.8,3.6-0.8
			c0.8,0,1.5,0.2,2,0.5c0.5,0.3,0.9,0.8,1.2,1.4c0.3,0.6,0.5,1.3,0.6,2.2c0.1,0.9,0.1,1.8,0.1,2.9l-2.5,0c0-1.5-0.2-2.6-0.5-3.4
			c-0.3-0.7-0.8-1.1-1.6-1.1c-0.7,0-1.4,0.1-2,0.3c-0.6,0.2-1.1,0.5-1.6,0.8c-0.4,0.3-0.8,0.6-1.1,0.9c-0.3,0.3-0.5,0.6-0.7,0.8
			v10.6h6.9v2.4H322.5z"/>
	</g>
</g>
</svg>
